<svg xmlns="http://www.w3.org/2000/svg" width="16" height="11" viewBox="0 0 16 11" fill="none">
  <path d="M6.84117 2.68803H6.83466V2.69456H6.84117V2.68803Z" fill="#0B0C0C"/>
  <mask id="mask0_35_721" style="mask-type:luminance" maskUnits="userSpaceOnUse" x="6" y="2" width="1" height="1">
    <path d="M6.84117 2.68803H6.83466V2.69456H6.84117V2.68803Z" fill="white"/>
  </mask>
  <g mask="url(#mask0_35_721)">
    <path fill-rule="evenodd" clip-rule="evenodd" d="M6.83794 2.6913C6.83794 2.6913 6.83794 2.6913 6.83794 2.68803C6.83794 2.68803 6.83468 2.6913 6.83142 2.69456C6.83142 2.69456 6.83142 2.69456 6.83468 2.69456" fill="#0B0C0C"/>
  </g>
  <path fill-rule="evenodd" clip-rule="evenodd" d="M4.21849 8.68477C4.326 8.73368 4.46936 8.80216 4.57687 8.84781C4.63878 8.8739 4.70394 8.89999 4.7691 8.92607C5.49238 9.21629 6.24173 9.40216 7.00736 9.51955C7.75345 9.63694 8.50606 9.65325 9.25541 9.59781C9.94937 9.54238 10.526 9.36303 11.1809 9.13803C11.4806 9.03042 11.7022 8.93586 11.9628 8.78912C12.0866 8.7239 12.2104 8.63586 12.3473 8.56412C12.3831 8.68151 12.3929 8.76629 12.2691 8.83803C12.1388 8.91303 12.0541 8.95868 11.9172 9.0239C11.5849 9.18042 11.2689 9.3239 10.8909 9.43151C10.5521 9.52934 10.3143 9.59781 10.0373 9.64673C9.6985 9.70868 9.42808 9.73803 9.04038 9.75434C8.44742 9.78368 7.86749 9.76412 7.2843 9.70216C6.74021 9.63368 6.22544 9.52608 5.67809 9.38586C5.45328 9.32716 5.12422 9.21303 4.90919 9.13151C4.70394 9.04346 4.59316 8.98803 4.38465 8.89673C4.31949 8.86412 4.29668 8.85108 4.24781 8.80216C4.21523 8.76955 4.20871 8.71086 4.22175 8.68477" fill="#0B0C0C"/>
  <path fill-rule="evenodd" clip-rule="evenodd" d="M13.0087 9.29456C12.9207 9.34999 12.8164 9.42174 12.7285 9.47717C12.3147 9.73478 11.8553 9.89782 11.4025 10.0674C11.1711 10.1522 10.93 10.2206 10.6922 10.2859C10.2002 10.4163 9.96567 10.462 9.29126 10.5272C9.05016 10.55 8.64942 10.4946 8.26172 10.4C9.11858 10.4098 9.84186 10.325 10.298 10.2206C10.9235 10.0772 11.5426 9.88804 12.1192 9.58804C12.3115 9.48695 12.5102 9.36304 12.6764 9.22934C12.7741 9.12826 12.9565 9.21304 13.0152 9.2913" fill="#0B0C0C"/>
  <path fill-rule="evenodd" clip-rule="evenodd" d="M4.07839 9.63043C3.80146 9.43804 3.60597 9.13152 3.58643 9.11195C3.77213 9.16739 3.99368 9.32391 4.21197 9.48043C4.45958 9.62391 4.55406 9.67934 4.8538 9.78695C5.20893 9.91413 5.46957 9.98587 5.83447 10.0837C6.33295 10.2174 6.31014 10.2011 6.81514 10.312C7.04646 10.3543 7.36249 10.387 7.8121 10.4033C7.20936 10.5141 6.75649 10.4522 6.32969 10.3739C6.02995 10.3185 5.53147 10.2435 5.16006 10.1196C4.52474 9.90761 4.35532 9.82282 4.07839 9.63043Z" fill="#0B0C0C"/>
  <path fill-rule="evenodd" clip-rule="evenodd" d="M14.3705 8.51521C13.4453 9.78369 12.4678 10.1522 11.536 10.3935C10.9463 10.5467 10.197 10.6217 9.94287 10.6315C10.6368 10.4978 11.2787 10.3152 11.7706 10.1098C12.2691 9.89782 12.5688 9.76739 12.9956 9.46413C13.0282 9.43152 13.0901 9.39239 13.1553 9.41848C13.3703 9.50652 14.1034 8.82173 14.3738 8.51521" fill="#0B0C0C"/>
  <path fill-rule="evenodd" clip-rule="evenodd" d="M6.95196 10.8206C6.81512 10.8043 6.38832 10.6543 6.32642 10.5728C6.92589 10.7065 7.4765 10.7065 8.04014 10.7196C8.11508 10.7261 8.38224 10.7098 8.45717 10.7065C8.66568 10.6967 8.96868 10.8239 9.14462 10.8304C8.96217 10.8793 8.26169 10.9217 8.04014 10.9054C8.04014 10.9185 7.44066 10.8826 6.95522 10.8206" fill="#0B0C0C"/>
  <path fill-rule="evenodd" clip-rule="evenodd" d="M12.2202 8.38478C11.8097 8.60978 11.4741 8.76956 11.0505 8.94891C10.9919 8.97499 10.8942 9.00434 10.829 8.98804C10.7475 8.96195 10.7215 8.89673 10.7443 8.82173C10.8518 8.78586 10.9267 8.75651 11.0212 8.72391C11.422 8.58369 11.6468 8.47282 12.0377 8.31304C12.0768 8.29673 12.2397 8.19565 12.3277 8.14999C12.331 8.30978 12.2625 8.36521 12.2234 8.38478" fill="#0B0C0C"/>
  <path fill-rule="evenodd" clip-rule="evenodd" d="M12.2496 7.99021C12.1942 8.02934 11.9922 8.12391 11.9335 8.15326C11.637 8.29348 11.5979 8.3 11.3047 8.43695C11.1972 8.48587 10.7867 8.63587 10.8356 8.43043C11.3471 8.21522 11.8456 8.02282 12.344 7.81087C12.3506 7.87935 12.344 7.94782 12.2496 7.99021Z" fill="#0B0C0C"/>
  <path fill-rule="evenodd" clip-rule="evenodd" d="M13.455 6.69891C13.8916 6.60434 14.5432 6.58478 14.9732 6.62065C14.9732 6.77065 14.9765 6.84239 14.9667 6.9663C14.5074 6.90108 13.8883 6.83586 13.4452 6.77065C13.3996 6.76413 13.4159 6.70217 13.4517 6.69565" fill="#0B0C0C"/>
  <path fill-rule="evenodd" clip-rule="evenodd" d="M14.263 7.46521C14.5725 7.49456 14.7745 7.46521 14.6735 7.72934C14.6572 7.77173 14.6018 7.90869 14.5888 7.95434C14.5204 8.16304 14.377 8.15325 14.188 8.14021C14.2109 7.91521 14.2434 7.69021 14.2662 7.46847" fill="#0B0C0C"/>
  <path fill-rule="evenodd" clip-rule="evenodd" d="M12.028 7.58587C12.028 7.68369 11.8781 7.74891 11.6533 7.85C11.5067 7.91847 11.3308 8.00652 11.1972 8.02608C11.1092 8.03913 11.0147 8.06521 10.9756 7.96739C11.3829 7.81087 11.6533 7.7 11.9824 7.54021C12.028 7.51413 12.028 7.54673 12.028 7.58587Z" fill="#0B0C0C"/>
  <path fill-rule="evenodd" clip-rule="evenodd" d="M12.8164 8.22499C13.3247 8.2968 13.7873 8.36208 14.2239 8.4241C14.2174 8.47959 14.2076 8.52202 14.1164 8.5057C13.8785 8.47632 13.556 8.43389 13.3181 8.40125C13.1911 8.38167 13.0347 8.36208 12.9109 8.34576C12.8294 8.33271 12.8164 8.28701 12.8164 8.22826" fill="#0B0C0C"/>
  <path fill-rule="evenodd" clip-rule="evenodd" d="M13.2172 6.98913C13.3084 6.97608 13.4159 6.96628 13.5137 6.97934C13.859 7.02504 14.54 7.08705 14.882 7.14254C14.8647 7.18824 14.844 7.23176 14.8201 7.27311C14.3477 7.20782 13.6961 7.1197 13.2237 7.05115C13.1748 7.04462 13.1748 6.99566 13.2139 6.98913" fill="#0B0C0C"/>
  <path fill-rule="evenodd" clip-rule="evenodd" d="M13.8818 7.69999C13.8003 7.61847 13.7254 7.53369 13.9046 7.41956C13.6211 7.38043 13.4029 7.34456 13.1683 7.30869C12.9891 7.27934 12.8979 7.30543 12.8783 7.47826C12.8588 7.62826 12.8523 7.78152 12.8327 7.94782C12.9174 7.96086 12.9891 7.97065 13.0412 7.97717C13.0412 7.81087 13.0282 7.66739 13.0412 7.52391C13.0477 7.45217 13.0347 7.3413 13.165 7.33152C13.367 7.39673 13.3833 7.55652 13.367 7.73261C13.3605 7.78804 13.3638 7.84673 13.3768 7.89891C13.3866 7.93478 13.4354 8.00652 13.4648 8.00978C13.5886 8.03587 13.6798 8.05217 13.859 8.07826C13.6374 7.90869 13.771 7.7913 13.885 7.69347" fill="#0B0C0C"/>
  <path fill-rule="evenodd" clip-rule="evenodd" d="M7.57751 8.99158C7.23542 8.92956 6.89007 8.86428 6.52191 8.799C6.52191 8.65538 6.84446 8.72392 7.08229 8.76962C7.35597 8.82185 7.57751 8.8708 7.57751 8.99158Z" fill="#0B0C0C"/>
  <path fill-rule="evenodd" clip-rule="evenodd" d="M5.84753 9.02716C5.54127 8.96521 5.23176 8.84782 4.9646 8.75651C4.9646 8.54456 5.86056 8.82173 5.84753 9.02716Z" fill="#0B0C0C"/>
  <path fill-rule="evenodd" clip-rule="evenodd" d="M6.70435 9.08913C6.99757 9.14135 7.26147 9.18705 7.52538 9.23275C7.52538 9.35678 7.22238 9.32414 7.05296 9.29476C6.8868 9.26538 6.65548 9.20663 6.70109 9.08913" fill="#0B0C0C"/>
  <path fill-rule="evenodd" clip-rule="evenodd" d="M5.72042 8.45664C5.60639 8.58394 5.45326 8.5513 5.29687 8.52519C5.27081 8.52192 5.0851 8.47296 5.10465 8.37177C5.11116 8.33587 5.18284 8.32608 5.21868 8.33261C5.30339 8.34893 5.38158 8.38483 5.46303 8.40768C5.54123 8.42726 5.62268 8.44032 5.72042 8.4599" fill="#0B0C0C"/>
  <path fill-rule="evenodd" clip-rule="evenodd" d="M13.7678 8.85125C13.6016 8.8284 13.4876 8.81534 13.3215 8.78923C13.2726 8.77944 13.2726 8.7468 13.2726 8.67825C13.442 8.69784 13.6505 8.74027 13.8199 8.75985C13.8199 8.82187 13.7939 8.85125 13.7678 8.85125Z" fill="#0B0C0C"/>
  <path d="M15.2958 6.17065C15.1361 6.17065 14.7159 6.17065 14.465 6.17065C14.351 6.17065 14.3803 6.07934 14.3803 6.0076C14.3835 5.71739 14.3803 4.21086 14.3803 4.08043H14.2988C14.2923 4.18478 14.2891 4.34782 14.2891 4.45869C14.2891 4.55326 13.6961 4.97391 13.442 4.82391C13.3279 4.75543 13.3345 4.68043 13.3247 4.5826C13.3084 4.39999 13.2269 4.24347 13.0608 4.17499C12.8229 4.07717 12.2854 4.3576 12.1225 4.56956C11.9596 4.78152 11.9596 6.38586 12.0508 6.81956C12.0247 6.82608 12.0052 6.82608 11.9856 6.82282C11.9009 6.80326 11.8325 6.67282 11.7478 6.54239C11.7413 6.52934 11.308 5.95869 11.2917 5.92608C11.1581 5.71087 10.9594 5.42065 10.816 5.21195C10.6661 4.99021 10.8518 4.97391 11.0864 4.88913C11.2852 4.81739 11.3862 4.70978 11.5849 4.70652C11.839 4.70652 11.7576 4.61847 11.6891 4.62499C11.5034 4.62499 11.4546 4.51087 11.4187 4.43587C11.3145 4.19782 11.1027 3.77065 11.0082 3.55869C11.0017 3.54565 10.9235 3.40869 10.8649 3.27826C10.715 2.93913 10.5391 2.53152 10.3762 2.19891C10.2654 1.97065 10.1546 1.75543 10.1644 1.50108C10.1709 1.39021 10.1709 1.19782 10.1644 1.12608C9.8451 1.03804 9.80275 1.1 9.57469 1.2826C9.4574 1.37717 9.20979 1.36413 9.13159 1.30543C9.18047 1.44891 9.34988 1.51412 9.40201 1.53043C9.62682 1.60543 9.71804 1.52065 9.95914 1.48152C10.0243 1.47173 10.1025 1.45543 10.1025 1.5076C10.1025 1.54347 10.1057 1.59239 10.1025 1.65108C10.0764 2.02608 9.95914 2.36195 9.83533 2.71412C9.71153 3.0663 9.53233 3.40217 9.37269 3.7413C9.33033 3.82934 9.30101 3.93369 9.23585 3.84565C9.13159 3.70869 8.34315 2.46956 8.30405 2.29021C8.28125 2.17608 8.41809 2.17282 8.5256 2.14673C8.80579 2.07173 8.82208 1.8076 9.06318 1.72608C9.12508 1.69673 9.08924 1.63152 8.96218 1.64782C8.70479 1.68043 8.59076 1.45543 8.48976 1.29565C8.33338 1.05108 8.18025 0.786951 8.06296 0.542386C8.03038 0.473908 8.0369 0.376081 8.04015 0.284777C8.04015 0.196734 8.04341 0.203256 8.04993 0.0662994C7.9359 0.167386 7.7339 0.141299 7.61987 0.245647C7.45697 0.392386 7.47326 0.845647 7.08555 0.513038C7.13768 0.581517 7.18003 0.796734 7.45371 0.793473C7.5938 0.793473 7.70458 0.757603 7.81535 0.59456C7.89028 0.48369 7.97825 0.470647 7.9359 0.55869C7.92612 0.578255 7.72738 1.09673 7.64919 1.27934C7.54819 1.5076 7.45697 1.75217 7.3299 1.92174C7.28755 1.97717 7.27452 2.01956 7.16374 2.04891C7.14094 2.05543 7.02691 2.05543 7.02691 2.08804C7.02691 2.12391 7.0432 2.1076 7.12791 2.12391C7.38203 2.1663 7.24519 2.34565 7.05623 2.47282C7.04971 2.47608 6.73694 2.74021 6.73694 2.74021C6.57078 2.87065 6.4763 2.89999 6.34598 2.74021C6.14398 2.48912 5.98108 2.18913 5.80188 1.91847C5.64224 1.67717 5.59337 1.41304 5.59989 1.11304C5.60314 0.940212 5.59663 0.832603 5.59663 0.617386C5.34576 0.643473 5.21218 0.796734 5.07534 0.927169C4.91896 1.07391 4.86031 1.26956 4.63225 1.29239C4.79515 1.42608 5.03299 1.35434 5.28386 1.15543C5.35879 1.09347 5.47608 1.07391 5.4826 1.24673C5.4826 1.32173 5.49237 1.39021 5.48586 1.46847C5.47934 1.57608 5.47282 1.60543 5.45653 1.66412C5.37834 1.89891 5.27734 2.09456 5.16983 2.35217C5.08512 2.55108 5.00041 2.79565 4.87009 2.9C4.8147 2.94565 4.74302 2.98804 4.65506 2.99456C4.47587 3.0076 4.52148 3.0826 4.5508 3.08587C4.73977 3.13804 4.89289 3.17717 5.04602 3.22282C5.2187 3.275 5.33924 3.50326 5.26105 3.63369C5.24476 3.65978 5.22847 3.68586 5.20892 3.71195C5.15679 3.78043 4.88638 4.08043 4.55406 4.38369C4.26084 4.65108 3.91223 4.91847 3.70045 5.05543C3.42352 5.23478 2.60575 5.66195 2.31905 5.82826C2.10402 5.95217 1.84663 6.17717 1.64138 6.17717C1.58925 6.17717 1.54364 6.10869 1.54689 5.98152C1.55667 5.62608 1.5697 4.90869 1.56644 4.09021C1.38073 4.09021 1.40354 4.2826 1.2048 4.30543C1.05819 4.32173 1.03212 4.37065 1.02887 4.42282C1.01258 4.63478 1.01258 4.75869 1.00932 4.84673C1.04841 4.85325 1.1038 4.82065 1.13638 4.80108C1.34164 4.66086 1.31557 4.72608 1.48825 4.69347C1.49477 4.93478 1.48825 5.77282 1.47196 6.02065C1.47196 6.07608 1.45241 6.18369 1.3449 6.18369H0.676998C0.628128 6.18043 0.628128 6.26847 0.725869 6.30108C0.794288 6.31739 0.882254 6.31086 0.957189 6.31739C1.05819 6.32391 1.1429 6.40217 1.17222 6.43478C1.5697 6.86195 2.35489 7.57282 2.5243 7.70978C2.63508 7.79782 2.75888 7.89239 2.88269 8.05543C3.00649 8.21521 3.36813 8.80869 3.45284 8.87065C3.45284 8.87065 3.4561 8.87065 3.45936 8.87391C3.66787 8.94891 3.84707 9.08913 4.04255 9.18695C4.35532 9.34021 4.66483 9.49347 4.98412 9.61739C5.25128 9.72174 5.49889 9.79347 5.77582 9.86847C6.13095 9.9663 6.52191 10.0902 6.88681 10.1424C7.3299 10.2043 7.56122 10.2304 7.90006 10.237C8.37573 10.2435 8.85141 10.2304 9.32382 10.188C9.71478 10.1522 10.1025 10.0739 10.4869 9.99239C10.7411 9.94021 10.9952 9.86847 11.2363 9.78043C11.4611 9.69891 11.6663 9.60108 11.8846 9.49673C12.0931 9.39891 12.4548 9.16086 12.6535 9.04673C12.6079 8.96847 12.4711 8.93913 12.3636 9.01739C12.1453 9.14456 12.1062 9.19347 11.7511 9.35326C11.4253 9.49999 11.119 9.64673 10.7769 9.73152C10.2752 9.85543 9.83207 9.94021 9.22934 10.025C8.60379 10.0772 7.98477 10.0772 7.38529 10.025C6.72391 9.95 6.32317 9.84565 5.68785 9.66304C5.41744 9.59782 5.15028 9.5 4.89289 9.39565C4.60293 9.27826 4.27061 9.10543 4.10119 8.97173C3.85358 8.77934 3.7819 8.50869 3.79494 7.93478C3.79819 7.77826 3.8601 7.71304 3.94481 7.73586C3.99694 7.74891 4.04906 7.76521 4.10119 7.78152C4.28038 7.83695 4.51496 7.92499 4.6909 7.99021C5.2415 8.19565 5.7465 8.32608 6.29059 8.42391C6.45349 8.45326 6.66526 8.48912 6.90962 8.50217C6.90962 8.44021 6.93242 8.39782 6.89984 8.37499C6.86075 8.34891 6.72717 8.35217 6.73368 8.24782C6.73368 8.18913 6.88355 8.19239 6.93242 8.19239C7.066 8.19891 7.15723 8.21195 7.29732 8.22499C7.34293 8.2413 7.31687 8.47282 7.31035 8.5413C7.52538 8.55108 7.72412 8.56086 7.95219 8.56086C8.03038 8.56086 8.17373 8.55108 8.18025 8.62608C8.18677 8.69782 8.17048 8.68152 7.85119 8.69782C7.81535 8.69782 7.81861 8.74673 7.85119 8.74673C7.89354 8.74673 8.01735 8.77282 8.04993 8.80543C8.14441 8.89999 8.12486 9.02065 8.12161 9.16413C8.11509 9.39565 8.25193 9.37934 8.42786 9.38587C8.79928 9.40217 9.08924 9.36956 9.34988 9.35C9.47043 9.32717 9.4965 9.25217 9.49324 9.17391C9.18047 9.17391 8.54189 9.24891 8.51909 9.20978C8.47022 9.19347 8.47999 9.16739 8.47347 9.11195C8.46696 9.05978 8.51583 9.05978 8.66895 9.05652C8.87095 9.05 8.99802 9.03043 9.19024 9.02391C9.34011 9.02065 9.38246 8.97174 9.37921 8.89674C9.08924 8.89674 8.80253 8.89673 8.44415 8.89999C8.4018 8.89999 8.44741 8.73043 8.53212 8.73043C9.21305 8.73043 9.24563 8.65217 9.5812 8.6326C9.66265 8.62934 9.82881 8.68152 9.83207 8.83152C9.83207 9.2163 9.96565 9.18695 10.0797 9.16739C10.1025 9.16412 10.2915 9.18043 10.2556 8.92282C10.2524 8.77608 10.1742 8.59021 10.2458 8.49239C10.3338 8.37173 10.5293 8.32934 10.7117 8.24782C10.8584 8.1826 10.7997 8.14347 10.7671 8.06195C10.728 7.96412 10.7834 7.89565 10.8714 7.86304C11.0994 7.78478 11.3145 7.70326 11.536 7.61195C11.6305 7.57282 11.7739 7.51413 11.8651 7.475C12.0769 7.38043 12.0801 7.27282 12.2104 7.53043C12.2202 7.54999 12.2235 7.57608 12.243 7.63478C12.3473 7.56956 12.5004 7.52065 12.5069 7.45543C12.5362 7.18478 12.7089 7.01195 12.862 6.82282C13.0087 6.64021 13.1846 6.40543 13.4485 6.38913C13.5365 6.3826 15.1394 6.39565 15.273 6.38913C15.3251 6.30434 15.4066 6.18695 15.286 6.18695L15.2958 6.17065ZM7.90006 4.47499C7.82838 4.46521 7.78603 4.52391 7.80558 4.23695C7.8349 3.87826 7.90983 2.6163 7.91635 2.49239C7.9359 2.28369 7.97174 2.30326 7.97825 2.58043C7.97825 2.63586 7.98803 3.91739 7.9978 4.23369C7.9978 4.28586 8.04341 4.48478 7.90332 4.47826L7.90006 4.47499ZM7.268 4.08369C7.22239 4.0413 7.23542 3.96956 7.27777 3.86195C7.29732 3.80978 7.70783 2.48912 7.74041 2.42391C7.77625 2.31956 7.81861 2.24456 7.80558 2.47282C7.80558 2.51847 7.70132 3.96304 7.68829 4.1163C7.68177 4.17826 7.68829 4.4 7.61661 4.36413C7.56448 4.3413 7.32339 4.13913 7.268 4.08695V4.08369ZM7.52864 4.59891C7.29406 4.67391 7.15071 4.70326 6.96826 4.74891C6.85423 4.7913 6.86726 4.7326 6.90636 4.66739C6.97804 4.51739 7.01387 4.43912 7.1051 4.25325C7.12465 4.21412 7.15071 4.17173 7.18003 4.19456C7.30384 4.28586 7.4081 4.37717 7.53516 4.4913C7.60032 4.54999 7.55145 4.58913 7.52864 4.59891ZM7.51561 1.83369C7.64267 1.52391 7.76322 1.22717 7.88703 0.930429C7.94241 0.770647 7.97173 0.868472 7.97499 0.923907C7.98477 1.08043 7.98151 1.64456 7.98151 1.69673C7.98151 1.75217 7.93264 1.79456 7.88051 1.81739C7.78929 1.85978 7.68177 1.91195 7.55471 1.93804C7.51235 1.94782 7.47326 1.91847 7.51561 1.83043V1.83369ZM6.87378 2.95543C6.96174 2.92282 6.89007 2.89021 6.7402 2.88369C6.6783 2.88043 6.72065 2.86086 6.75649 2.83152C6.82165 2.77934 7.19958 2.45978 7.25823 2.41087C7.32013 2.35869 7.50584 2.21521 7.59055 2.23804C7.672 2.26086 7.63942 2.32608 7.62964 2.36847C7.61987 2.41412 7.24845 3.64021 7.15397 3.87826C7.1279 3.94021 7.08881 3.93043 7.07252 3.91087C6.88681 3.69239 6.71413 3.49999 6.57078 3.23912C6.50888 3.12499 6.65223 3.04347 6.87378 2.95869V2.95543ZM6.24824 3.29782C6.3753 3.20325 6.43069 3.3076 6.4991 3.39239C6.66852 3.60108 6.84446 3.80978 7.01062 4.02173C7.03994 4.0576 7.05297 4.13587 7.03342 4.17826C6.92916 4.40326 6.84446 4.55978 6.72717 4.77825C6.67504 4.86956 6.6001 4.84347 6.54146 4.73913C6.41114 4.50434 6.07882 3.78695 6.05275 3.67608C6.03972 3.62717 6.03972 3.59782 6.06253 3.54891C6.09185 3.49347 6.1733 3.35325 6.24824 3.29782ZM6.67178 5.23478C6.7402 5.33913 6.7793 5.37826 6.6392 5.38478C6.54146 5.38804 6.35901 5.38478 6.26127 5.39456C6.15701 5.4076 6.1342 5.33586 6.11791 5.21195C6.11791 5.18586 5.96153 4.1326 5.93547 3.91087C5.91592 3.8163 5.98759 3.82282 6.02017 3.91087C6.13746 4.22717 6.5773 5.0913 6.67178 5.23478ZM5.52821 5.57391C5.46957 5.59347 5.4207 5.61956 5.39789 5.60325C5.36205 5.57717 5.40766 5.525 5.4435 5.47282C5.4826 5.41413 5.45653 5.45326 5.49563 5.3913C5.52495 5.34891 5.55427 5.37826 5.55427 5.43043C5.55427 5.48586 5.57708 5.56087 5.52821 5.57717V5.57391ZM5.27734 5.58043C5.23173 5.62934 5.18937 5.64239 5.16005 5.64565C4.91896 5.65869 4.74954 5.66521 4.63877 5.64565C4.52799 5.62934 4.49867 5.58369 4.58338 5.47282C4.60945 5.44021 4.6909 5.32608 4.73325 5.25108C4.77886 5.17934 4.82122 5.08804 4.88964 5.00326C4.90918 4.97717 4.91244 4.95434 4.93525 4.95108C4.9776 4.9413 5.03625 4.97065 5.07209 4.98369C5.19263 5.02282 5.27734 5.03912 5.46305 5.11412C5.55753 5.14999 5.45653 5.27717 5.40441 5.37173C5.35879 5.45652 5.31644 5.53804 5.27734 5.58043ZM5.53473 4.07391C5.5445 4.20108 5.53798 4.54999 5.53798 4.64782C5.53798 4.73695 5.53798 4.82608 5.53798 4.91521C5.53798 4.94456 5.54124 4.99999 5.5054 5.01304C5.46305 5.02608 5.38486 4.99673 5.35228 4.98695C5.2415 4.9576 5.16983 4.9413 5.06231 4.88913C4.96131 4.83695 5.04928 4.72934 5.06883 4.68043C5.16331 4.45217 5.22847 4.29239 5.33273 4.06739C5.35879 4.01521 5.40766 3.84239 5.47282 3.88478C5.53147 3.93043 5.52821 4.02825 5.53147 4.07717L5.53473 4.07391ZM5.26757 2.9C5.09163 2.91956 5.09815 2.80869 5.12096 2.74347C5.21218 2.48586 5.32621 2.23804 5.43373 1.98369C5.45653 1.92173 5.48586 1.91195 5.48586 1.97391C5.48586 2.13695 5.49563 2.66195 5.49563 2.69782C5.48911 2.90978 5.41418 2.88369 5.26757 2.9ZM2.6253 7.59239C2.42005 7.41304 1.96066 6.99565 1.66418 6.72173C1.61205 6.67282 1.34815 6.43152 1.37096 6.33369C1.40354 6.24891 1.5078 6.28152 1.71305 6.27825C2.06492 6.27825 1.82383 6.27499 2.06492 6.27825C2.34511 6.27825 2.43308 6.425 2.5015 6.50652C2.51127 6.51956 2.52104 6.52934 2.52756 6.53913C2.62204 6.65326 2.69698 6.76739 2.76866 7.00217C2.83056 7.20434 3.1303 8.02934 2.62204 7.59565L2.6253 7.59239ZM3.52778 8.3326C3.47239 8.36195 3.3942 8.25108 3.34207 8.18587C3.24107 8.06847 3.21175 7.93804 3.14333 7.72608C3.0293 7.37717 2.93807 6.9663 3.1531 7.09673C3.28668 7.17826 3.28017 7.16847 3.38117 7.24347C3.48542 7.33478 3.48868 7.51739 3.4952 7.55652C3.54081 7.78804 3.54733 7.89891 3.55384 8.13043C3.5571 8.24782 3.57991 8.30652 3.52778 8.3326ZM3.46913 7.09673C3.33555 7.05108 3.19546 6.92717 2.94133 6.71521C2.78495 6.58478 2.50801 6.27826 2.63508 6.275C3.04885 6.26521 3.23456 6.28152 3.48542 6.28152C3.6972 6.28152 3.68091 6.34347 3.70045 6.47065C3.72326 6.61413 3.70697 6.82608 3.71674 6.96956C3.72652 7.1163 3.60597 7.15217 3.46913 7.09347V7.09673ZM4.15658 7.34456C4.09142 7.325 4.01974 7.28913 3.93503 7.25326C3.85358 7.21739 3.84381 7.10652 3.83729 7.0413C3.81774 6.74456 3.81448 6.6076 3.78516 6.31087C3.77539 6.20652 3.72652 6.17065 3.64507 6.17065C3.2932 6.17065 3.03907 6.17717 2.68721 6.17065C2.56014 6.17065 2.14311 6.17065 2.01279 6.17065C1.94112 6.17065 2.19524 5.99456 2.22456 5.98152C2.56666 5.7826 3.47565 5.29021 3.73955 5.11739C4.01974 4.93478 4.37487 4.62173 4.64854 4.37065C4.90267 4.13586 5.06557 3.95 5.19589 3.81956C5.29689 3.68587 5.3425 3.80978 5.3197 3.875C5.26757 4.01521 5.27408 4.01195 5.23499 4.09673C5.16331 4.25326 5.08186 4.40326 5.01018 4.55978C4.86683 4.87608 4.40745 5.5576 4.39116 5.59673C4.37161 5.64239 4.17938 5.59347 4.29667 5.72391C4.32925 5.75978 4.54754 5.77608 4.60293 5.79239C4.78864 5.84456 5.10792 5.88043 5.1177 6.0076C5.12747 6.09891 5.04276 6.30434 5.04602 6.30434C5.04602 6.30434 4.6518 7.08369 4.50845 7.31847C4.4498 7.41304 4.43025 7.4326 4.15984 7.34456H4.15658ZM4.60944 7.47173C4.53451 7.44565 4.61596 7.36412 4.62899 7.32826C4.66483 7.23043 4.72022 7.12608 4.76909 7.0413L5.14376 6.25543C5.19263 6.18369 5.21218 6.10217 5.30666 6.125C5.45653 6.1576 5.45328 6.23912 5.40766 6.37282C5.35879 6.51956 5.27408 6.69891 5.20241 6.85869L4.99063 7.2663C4.96457 7.31521 4.93525 7.36086 4.90918 7.39673C4.84402 7.57934 4.67135 7.49782 4.60619 7.475L4.60944 7.47173ZM4.98412 7.5076C4.96131 7.43913 5.03951 7.32826 5.08186 7.23043H5.08512L5.24802 6.90108C5.27083 6.86521 5.37508 6.64673 5.40441 6.58152C5.41744 6.55217 5.45979 6.44456 5.46957 6.42173C5.55428 6.21304 5.57382 6.4576 5.55753 6.5163C5.55102 6.54239 5.33924 7.28586 5.28712 7.42608C5.26431 7.48804 5.22196 7.62173 5.16657 7.60543C5.11118 7.58912 5.00367 7.55652 4.98738 7.5076H4.98412ZM5.11444 8.0326C4.99064 7.96413 4.9776 7.85326 5.05905 7.73913C5.20241 7.78804 5.34576 7.83695 5.49889 7.88912C5.4207 8.075 5.28712 8.12717 5.11444 8.0326ZM5.60315 7.5663C5.60315 7.6413 5.60314 7.75543 5.53473 7.75217C5.50215 7.75217 5.41418 7.71956 5.33273 7.69021C5.29037 7.66086 5.27408 7.6413 5.29363 7.59565C5.37834 7.37717 5.42721 7.18152 5.49563 6.97282C5.50866 6.93043 5.53798 6.81956 5.55102 6.79673C5.59011 6.71521 5.59989 6.84891 5.59663 6.93695C5.59663 7.09673 5.60966 7.40652 5.60315 7.5663ZM5.66179 2.60978C5.65527 2.42717 5.6455 2.18912 5.64224 2.00652C5.64224 1.98043 5.64224 1.94782 5.64224 1.91847C5.64224 1.82717 5.66179 1.88586 5.67482 1.90217C5.73998 1.99021 5.88659 2.21847 5.95501 2.3326C6.03646 2.46956 6.10488 2.56086 6.17656 2.70434C6.21891 2.79239 6.17982 2.8413 6.08533 2.84782C6.05601 2.84782 6.02995 2.85434 6.00388 2.8576C5.68134 2.88043 5.67482 2.93586 5.66505 2.61304L5.66179 2.60978ZM5.73347 4.1913C5.73347 4.17173 5.72043 3.90108 5.72043 3.86521C5.72043 3.79347 5.80514 3.82934 5.82143 3.88152C5.84424 3.94021 5.95501 4.66413 5.97782 4.88913C5.98108 4.925 5.99737 4.97717 5.92895 4.97065C5.90288 4.97065 5.87682 4.97391 5.83121 4.97717C5.7465 4.97717 5.75953 4.82391 5.75627 4.69347C5.75301 4.54674 5.74324 4.35108 5.73347 4.1913ZM5.78885 5.31304C5.78234 5.18586 5.79537 5.12717 5.85076 5.09456C5.87356 5.08152 5.90288 5.07499 5.93872 5.06847C5.96153 5.06847 6.00714 5.0913 6.02017 5.12391C6.03972 5.17608 6.05275 5.27391 6.05275 5.3326C6.05275 5.42391 6.04624 5.44673 5.93872 5.47282C5.8703 5.48913 5.80189 5.55434 5.78885 5.31304ZM6.15375 7.91521C6.10814 7.91195 6.06904 7.90543 6.03646 7.89891C5.98759 7.88586 5.93221 7.87608 5.91266 7.83369C5.89963 7.80434 5.89963 7.63478 5.89963 7.59239C5.88334 7.175 5.86053 6.78369 5.84098 6.36956C5.84098 6.33043 5.82469 6.18695 5.85401 6.12825C5.87682 6.0826 5.90288 6.08586 5.92243 6.08586C6.02343 6.08586 6.02669 6.30434 6.03646 6.34999C6.0723 6.52608 6.19937 7.77826 6.20262 7.83043C6.20262 7.89891 6.20914 7.91521 6.15375 7.90869V7.91521ZM6.4991 7.96413C6.42743 7.96087 6.34598 7.9576 6.31991 7.92499C6.3134 7.91847 6.30688 7.90543 6.30036 7.89239C6.29385 7.86956 6.28733 7.84021 6.28407 7.82065C6.26127 7.70326 6.10814 6.45108 6.06579 6.10217C6.05927 6.05326 6.10162 6.04021 6.11791 6.09239C6.17982 6.28804 6.52191 7.72282 6.55449 7.92826C6.56101 7.96739 6.52517 7.96739 6.4991 7.96413ZM6.8021 7.99021C6.76626 7.99021 6.74346 7.99021 6.68481 7.96739C6.64897 7.95434 6.6392 7.90543 6.62943 7.8663C6.51539 7.40326 6.24824 6.36956 6.19937 6.13804C6.17004 6.00108 6.12117 5.90326 6.26778 5.8413C6.45675 5.75978 6.71088 5.63587 6.89333 5.53152C6.93568 5.50869 7.00084 5.46304 7.0041 5.43369C7.00736 5.34239 6.9031 5.40108 6.88355 5.36521C6.82165 5.25434 6.75975 5.14347 6.69133 5.02934C6.67178 4.99673 6.67504 4.98369 6.71088 4.98043C7.00736 4.96739 7.27777 4.97065 7.54819 4.98043C7.71761 4.98695 7.70458 5.12391 7.67525 5.23478C7.59706 5.55108 7.03016 7.47173 6.97478 7.63152C6.93568 7.74239 6.864 7.98695 6.80536 7.98369L6.8021 7.99021ZM7.3071 7.92826C7.28429 7.98695 7.27126 8.02934 7.22239 8.0326C7.14419 8.03586 6.98781 8.0326 6.96826 7.98695C6.94871 7.92826 6.96826 7.87608 6.99433 7.80434C7.04971 7.64782 7.71435 5.38478 7.76648 5.2413C7.78277 5.19565 7.79906 4.99673 7.92286 5.00326C8.08251 5.00326 8.01409 5.14673 8.01083 5.19239C8.00431 5.32282 7.92938 5.59673 7.90006 5.72391C7.78603 6.18695 7.66548 6.64673 7.54819 7.10652C7.50258 7.28586 7.45045 7.46521 7.40158 7.6413C7.37552 7.73912 7.33316 7.85652 7.3071 7.93152V7.92826ZM8.02712 7.96739C8.02712 8.05543 8.00106 8.10108 7.9359 8.10108C7.91309 8.10108 7.56774 8.10108 7.50909 8.03912C7.45045 7.97717 7.46022 7.90543 7.47651 7.7913C7.48629 7.71956 7.50909 7.6413 7.5319 7.55652C7.6329 7.21413 7.90983 6.07934 7.97825 5.80543C7.99128 5.74347 8.01409 5.75652 8.00432 5.88369C8.01083 6.01739 8.00432 6.17391 8.00757 6.30434C8.01083 6.71847 8.00758 7.12282 8.02061 7.53369C8.02712 7.67717 8.02387 7.82065 8.02061 7.96739H8.02712ZM10.1611 7.12934C10.1611 7.31195 10.1709 7.48478 10.1677 7.67065C10.1677 7.87608 10.1286 7.90543 9.99497 7.93804C9.89398 7.96413 9.76691 8.0163 9.70827 7.97717C9.66591 7.95108 9.67243 7.87282 9.68546 7.80108C9.74085 7.47826 10.0504 5.79565 10.096 5.53804C10.1025 5.47608 10.1351 5.36847 10.1416 5.45C10.1416 5.66195 10.1611 6.78369 10.1611 7.1326V7.12934ZM8.91005 4.85652C8.94263 4.84674 9.0306 4.84999 9.05666 4.85978C9.27169 4.92826 9.45414 4.97717 9.6594 5.06847C9.73759 5.10434 9.86791 5.13043 9.82881 5.30326C9.73759 5.72391 9.60075 6.13478 9.47043 6.54239C9.4574 6.58152 9.43133 6.67608 9.40853 6.76413C9.3955 6.8163 9.35966 6.90108 9.31079 6.73152C9.22608 6.43478 8.79276 5.01304 8.76995 4.95108C8.71131 4.79456 8.73411 4.71304 8.90679 4.62173C8.96544 4.58913 8.94589 4.60543 9.00453 4.56956C9.00453 4.56956 8.93937 4.71956 8.89702 4.77825C8.88724 4.7913 8.87747 4.79782 8.87095 4.80108C8.77321 4.82391 8.8286 4.87934 8.91331 4.85652H8.91005ZM9.97868 5.25434C10.0113 5.12391 10.0764 5.16304 10.0471 5.28695C10.0113 5.49565 9.62682 7.60543 9.54862 7.91847C9.5193 8.0326 9.34663 8.075 9.1935 8.0913C9.1544 8.09565 9.14246 8.07173 9.15766 8.01956C9.38898 7.23369 9.7604 5.98804 9.97868 5.25434ZM10.1123 2.53152C10.1188 2.64239 10.1351 3.98586 10.1351 4.22391C10.1351 4.32826 10.008 4.42608 9.92656 4.49456C9.85488 4.55652 9.70827 4.51087 9.73433 4.41304C9.73433 4.41304 10.0504 2.59673 10.0829 2.43043C10.0927 2.36195 10.1123 2.40108 10.1123 2.53152ZM9.3173 4.17173C9.40527 4.10978 9.44437 4.13912 9.44111 4.03478C9.44111 3.96956 9.33685 4.01847 9.38572 3.94021L9.49975 3.69238C9.62681 3.4413 9.77994 3.13804 9.86791 2.94565C9.90375 2.86739 9.90375 2.9 9.89398 2.98152C9.88746 3.01739 9.66265 4.39673 9.63985 4.44565C9.61704 4.49456 9.60075 4.59891 9.34663 4.6576C9.2554 4.68043 9.1316 4.72282 9.04037 4.74565C9.00453 4.75543 9.02408 4.72608 9.02408 4.72608C9.02408 4.72608 9.25866 4.2076 9.32056 4.16521L9.3173 4.17173ZM8.34315 2.65217C8.38225 2.71086 8.94915 3.54891 9.20327 4.00543C9.24237 4.07717 9.16743 4.12608 9.10879 4.14891C9.01105 4.18478 8.99476 4.17825 8.89376 4.21739C8.75692 4.26956 8.69176 4.15869 8.65266 4.01195C8.60705 3.83913 8.26822 2.74347 8.27799 2.67826C8.28776 2.6 8.31383 2.61304 8.34315 2.65543V2.65217ZM8.09228 1.57282C8.08251 1.38043 8.06948 1.20434 8.06622 1.01195C8.06622 0.803255 8.0597 0.747821 8.10206 0.826081C8.27473 1.09999 8.42786 1.3413 8.57121 1.58913C8.64615 1.7163 8.52886 1.70652 8.48325 1.71304C8.39528 1.72282 8.29754 1.73912 8.22586 1.73912C8.10531 1.73912 8.0988 1.72934 8.09228 1.57608V1.57282ZM8.19002 4.34456C8.18677 4.02499 8.16396 3.48369 8.14767 3.09239C8.12812 2.63586 8.15419 2.69782 8.22586 2.94239C8.3008 3.17065 8.4865 3.86521 8.54841 4.06739C8.57121 4.14891 8.63312 4.30543 8.57121 4.33152C8.4865 4.36413 8.36596 4.39347 8.28451 4.42282C8.22912 4.44565 8.19654 4.42282 8.19002 4.34456ZM8.81231 8.12391C8.70154 8.13369 8.55818 8.11739 8.45067 8.11739C8.35944 8.11739 8.33989 8.0163 8.33338 7.93152C8.3236 7.79782 8.28451 6.85217 8.27799 6.51956C8.27147 6.24239 8.26822 5.9913 8.24867 5.71413C8.24541 5.65869 8.21283 5.32608 8.2617 5.32608C8.30731 5.31304 8.37899 5.63586 8.38551 5.66847C8.46696 5.98478 8.54189 6.30108 8.62008 6.61739C8.7276 7.04782 8.83511 7.47825 8.93285 7.90869C8.96869 8.07173 8.97521 8.11086 8.81557 8.12391H8.81231ZM9.02408 7.81413C8.9524 7.50434 8.33663 5.225 8.33663 5.04239C8.33663 4.98369 8.39854 4.90543 8.51909 4.83695C8.61031 4.77173 8.64289 4.94456 8.65918 4.99673C8.80254 5.44021 8.93937 5.88695 9.07295 6.33043C9.14137 6.55217 9.19676 6.78369 9.26192 7.00217C9.28472 7.07391 9.27821 7.12282 9.2554 7.2076C9.23911 7.2663 9.12508 7.69347 9.0925 7.76847C9.06643 7.82391 9.02082 7.84021 9.01756 7.81086L9.02408 7.81413ZM9.62682 8.44673C9.32708 8.49239 9.17721 8.44021 9.08598 8.25108C9.40853 8.18586 9.72782 8.11738 10.0634 8.04891C10.0634 8.24456 9.89398 8.4076 9.62682 8.44673ZM10.0862 9.07282C10.0145 9.0826 9.95914 9.07282 9.93959 8.95217C9.92004 8.8576 9.95262 8.78913 10.0667 8.78913C10.1448 8.76956 10.1644 8.86086 10.1742 8.93586C10.1807 9.0076 10.1318 9.06956 10.0829 9.07282H10.0862ZM10.1905 2.28695C10.1905 2.24782 10.2035 2.07499 10.2589 2.20217C10.2849 2.24456 10.6368 3.07282 10.7606 3.35652C10.8062 3.46412 10.7932 3.53587 10.7052 3.64347C10.5782 3.79673 10.4674 3.91412 10.3501 4.04456C10.2915 4.11304 10.2686 4.08043 10.2686 4.00217C10.2556 3.81956 10.2067 2.60325 10.1937 2.28369L10.1905 2.28695ZM10.2784 4.4163C10.2752 4.3576 10.324 4.27934 10.3827 4.19782C10.5228 4.00869 10.6792 3.83586 10.8518 3.64021C10.8714 3.61739 10.8909 3.63369 10.8942 3.64673C11.005 3.88804 11.1092 4.10325 11.1972 4.32173C11.2623 4.48152 11.1711 4.61521 11.005 4.61521C10.8551 4.61521 10.7085 4.60869 10.5586 4.59565C10.3957 4.57934 10.2817 4.52065 10.2752 4.42282L10.2784 4.4163ZM10.4837 7.52065C10.4446 7.53369 10.399 7.52065 10.3925 7.37065C10.3794 7.08369 10.3534 6.19021 10.3468 5.90652C10.3468 5.89021 10.4478 6.30434 10.4804 6.42826C10.5293 6.6076 10.6987 7.23695 10.7117 7.36739C10.7215 7.45543 10.6205 7.47499 10.4869 7.51739L10.4837 7.52065ZM11.1646 7.24021C11.1353 7.30869 10.9887 7.35108 10.9398 7.36739C10.8258 7.40652 10.816 7.30869 10.7411 7.0413C10.614 6.58152 10.5 6.11847 10.3859 5.65543C10.3599 5.54782 10.3468 5.44021 10.3273 5.3326C10.3012 5.23478 10.3696 5.21847 10.4087 5.29999C10.4739 5.41739 11.0929 6.93043 11.1385 7.05434C11.1646 7.12608 11.1874 7.19456 11.1679 7.24021H11.1646ZM11.5719 7.1326C11.3796 7.2076 11.334 7.21086 11.2949 7.12282C11.0701 6.61086 10.7248 5.82173 10.5163 5.31304C10.4185 5.07499 10.5749 5.05217 10.627 5.14347C10.7899 5.42391 11.725 6.77065 11.7804 6.83912C11.9074 6.99891 11.7054 7.08043 11.5719 7.1326ZM14.2956 6.0076C14.2956 6.0663 14.2825 6.17065 14.2206 6.17065H13.6049C13.4355 6.17065 13.2367 6.23586 13.152 6.27825C12.9663 6.3663 12.8164 6.46412 12.5362 6.60434C12.4352 6.65652 12.4027 6.66956 12.2984 6.71521C12.256 6.73478 12.1974 6.76412 12.142 6.79021C12.344 6.37282 12.6568 5.95543 12.95 5.9163C13.0771 5.9 13.2237 6.04021 13.3442 6.03369C13.5593 6.02391 13.7385 5.86087 13.8688 5.74021C14.074 5.55108 14.276 5.57391 14.2923 5.61956C14.3054 5.65543 14.2923 5.80217 14.2988 6.00434L14.2956 6.0076ZM14.3021 5.3163C14.1001 5.2413 13.8166 5.41412 13.5821 5.6163C13.3475 5.81847 13.2888 5.73043 12.9337 5.59673C12.5819 5.46304 12.1648 6.01086 12.1648 6.01086C12.1648 6.01086 12.0573 5.11739 12.2202 4.71956C12.3961 4.51086 12.9793 4.15217 13.0445 4.57282C13.0966 4.92173 13.4061 4.99021 13.5397 5.00652C13.8981 5.04891 14.3021 4.67717 14.3021 4.67717C14.3021 4.67717 14.3119 5.14347 14.3021 5.31956V5.3163Z" fill="#0B0C0C"/>
</svg>